<svg xmlns="http://www.w3.org/2000/svg" viewBox="0 0 28 24.45">
  <defs>
    <style>
      .cls-1 {
        fill: #656565;
      }
    </style>
  </defs>
  <title>資產 1</title>
  <g id="圖層_2" data-name="圖層 2">
    <g id="圖層_1-2" data-name="圖層 1">
      <path class="cls-1"
        d="M27.49,7.35,15,.26a2,2,0,0,0-2,0L.51,7.35A1,1,0,0,0,0,8.23v8a1,1,0,0,0,.51.87L13,24.19a2,2,0,0,0,2,0l12.5-7.09a1,1,0,0,0,.51-.87v-8A1,1,0,0,0,27.49,7.35ZM26,14.51l-4-2.28,4-2.29ZM20,11.08,15,8.26V2.56L25,8.23ZM14,14.45l-3.92-2.22L14,10l3.93,2.23ZM13,2.56v5.7L8.05,11.08,3,8.23ZM2,9.94l4,2.29L2,14.51Zm6.05,3.44L13,16.19v5.7L3,16.23Zm7,8.51v-5.7L20,13.38l5,2.85Z" />
    </g>
  </g>
</svg>