<svg xmlns="http://www.w3.org/2000/svg" viewBox="0 0 13.66 11.7"><defs><style>.cls-1{fill:#656565;}</style></defs><title>iframe</title><g id="圖層_2" data-name="圖層 2"><g id="圖層_1-2" data-name="圖層 1"><path class="cls-1" d="M12.59,0H1.06A1.07,1.07,0,0,0,0,1.06V2.23H0v8.16A1.32,1.32,0,0,0,1.33,11.7h11a1.32,1.32,0,0,0,1.32-1.31V2.23h0V1.06A1.07,1.07,0,0,0,12.59,0ZM4.08.82a.54.54,0,1,1-.54.53A.53.53,0,0,1,4.08.82ZM2.66.82a.53.53,0,0,1,.53.53.53.53,0,0,1-.53.54.54.54,0,0,1,0-1.07ZM1.29.82a.54.54,0,1,1-.53.53A.53.53,0,0,1,1.29.82ZM13,10.39a.68.68,0,0,1-.68.68h-11a.68.68,0,0,1-.68-.68V2.55H13Z"/><path class="cls-1" d="M11.31,6.9l-.05-.06L9.46,5.35a.42.42,0,0,0-.31-.06.42.42,0,0,0-.27.18A.41.41,0,0,0,8.94,6l1.39,1.17L8.93,8.33a.42.42,0,0,0,0,.59.37.37,0,0,0,.31.15h0A.37.37,0,0,0,9.47,9l1.78-1.48a.4.4,0,0,0,.06-.59Z"/><path class="cls-1" d="M8.16,3.51a.4.4,0,0,0-.32,0,.4.4,0,0,0-.22.24L5.25,10.29a.4.4,0,0,0,0,.32.45.45,0,0,0,.23.22h0l.14,0h0a.43.43,0,0,0,.4-.28L8.41,4A.41.41,0,0,0,8.16,3.51Z"/><path class="cls-1" d="M4.78,6a.41.41,0,0,0,0-.59.42.42,0,0,0-.59,0L2.4,6.84l0,.06a.45.45,0,0,0-.1.31.43.43,0,0,0,.15.28L4.18,9a.39.39,0,0,0,.27.1.39.39,0,0,0,.33-.15.42.42,0,0,0-.06-.59L3.33,7.17,4.71,6A.13.13,0,0,0,4.78,6Z"/></g></g></svg>