<svg xmlns="http://www.w3.org/2000/svg" viewBox="0 0 11.7 9.9"><defs><style>.cls-1{fill:#656565;}</style></defs><title>images</title><g id="圖層_2" data-name="圖層 2"><g id="圖層_1-2" data-name="圖層 1"><path class="cls-1" d="M11.7,8.1V.9a.9.9,0,0,0-.9-.9H.9A.9.9,0,0,0,0,.9V9a.9.9,0,0,0,.9.9h9.9a.9.9,0,0,0,.9-.9ZM10.8.9V7L9.18,5.4a.9.9,0,0,0-1.27,0L6.75,6.56,4.23,4.05A.9.9,0,0,0,3,4.05L.9,6.11V.9Zm0,8.1H.9V7.38l2.7-2.7L6.11,7.2a.9.9,0,0,0,1.27,0h0L8.55,6,10.8,8.28ZM7,3.85a.66.66,0,0,1-.2-.48.68.68,0,1,1,.67.68A.63.63,0,0,1,7,3.85Z"/></g></g></svg>