<svg xmlns="http://www.w3.org/2000/svg" viewBox="0 0 64 64"><defs><style>.cls-1{fill:#fff;}.cls-2{fill:#4d3224;}.cls-3{fill:#e9e9e7;opacity:0.5;}</style></defs><title>logo</title><g id="圖層_2" data-name="圖層 2"><g id="siteicon"><rect class="cls-1" x="0.85" y="0.85" width="62.29" height="62.29"/><path class="cls-2" d="M62.29,1.71V62.29H1.71V1.71H62.29M64,0H0V64H64V0Z"/><rect class="cls-3" x="31.61" y="1.69" width="30.67" height="60.6"/><path class="cls-2" d="M36.21,52.05l3.35-23.5-9.84,23.5H22.55l1-23.6-8.73,23.6H10.72L24,16.09a12.17,12.17,0,0,0-6.12,4.29,12.27,12.27,0,0,0-2.2,7.49,9.27,9.27,0,0,0,.1,1.54c.07.41.14.74.21,1a3.19,3.19,0,0,0,.24.65,2.87,2.87,0,0,1,.18.42,6.9,6.9,0,0,1-4-1.07,4.14,4.14,0,0,1-1.53-3.64,9.87,9.87,0,0,1,1.48-5,17.53,17.53,0,0,1,3.82-4.51A20.11,20.11,0,0,1,21.42,14a15.25,15.25,0,0,1,5.89-1.23,11.39,11.39,0,0,1,4.08.73l-1.2,27.58L41.7,13.53h7.54L43.75,52.05Z"/></g></g></svg>