<svg xmlns="http://www.w3.org/2000/svg" viewBox="0 0 229.76 65.65">
  <defs>
    <style>
      .cls-1 {
        fill: #b99971;
      }

      .cls-2 {
        fill: #b6976f;
      }

      .cls-3 {
        opacity: 0.5;
      }

      .cls-4 {
        fill: #f3ece4;
      }

      .cls-5 {
        fill: #fff;
      }

      .cls-6 {
        fill: #dcdddd;
      }
    </style>
  </defs>
  <title>logo</title>
  <g id="圖層_2" data-name="圖層 2">
    <g id="圖層_1-2" data-name="圖層 1">
      <path class="cls-1"
        d="M90.06,32.56c-.13,1.79-.26,3.59-.38,5.38a2.9,2.9,0,0,0-.58,0H88a2.71,2.71,0,0,0-.56,0q.77-4.12,1.37-8.21t1.1-8.28l.49.08a2.67,2.67,0,0,0,.5,0,2.42,2.42,0,0,0,.45,0l.51-.08c.43,1,.88,1.94,1.35,2.93s1,2,1.42,3,.94,1.95,1.41,2.89l1.36,2.69q1.44-2.69,2.87-5.63c1-2,1.86-3.9,2.72-5.84a5.43,5.43,0,0,0,1,.12,5.25,5.25,0,0,0,1-.12c.16,1.38.33,2.86.52,4.44s.36,3.13.54,4.64.35,2.93.53,4.24.33,2.37.48,3.17a7.94,7.94,0,0,0-1,0h-1.95a8.54,8.54,0,0,0-1,0c-.08-1.65-.21-3.43-.4-5.36s-.37-3.82-.56-5.71h-.05l-2.69,5.57q-1.32,2.75-2.61,5.5l-.23,0h-.46l-.22,0c-.87-1.79-1.73-3.59-2.58-5.38S91.6,29,90.68,27.11h0Q90.25,29.87,90.06,32.56Z" />
      <path class="cls-1"
        d="M109.31,27.76a7.75,7.75,0,0,1,2.17-1.25,6.6,6.6,0,0,1,2.32-.43,6.53,6.53,0,0,1,1.76.22A3.69,3.69,0,0,1,117,27a3.08,3.08,0,0,1,.91,1.21,4.45,4.45,0,0,1,.33,1.8c0,1,0,2,0,2.85s0,1.74,0,2.6a3.58,3.58,0,0,0,.08.9,1.07,1.07,0,0,0,.25.49.74.74,0,0,0,.45.22,3.83,3.83,0,0,0,.63.05v.57a9.34,9.34,0,0,1-1.17.43,3.49,3.49,0,0,1-1,.15,2.33,2.33,0,0,1-1.44-.43,2.82,2.82,0,0,1-.84-1.25,4.36,4.36,0,0,1-1.28,1.22,3.37,3.37,0,0,1-1.84.46,4.57,4.57,0,0,1-1.56-.24,2.81,2.81,0,0,1-1.06-.68,2.88,2.88,0,0,1-.62-1,3.78,3.78,0,0,1-.19-1.14,3.53,3.53,0,0,1,.25-1.37,2.8,2.8,0,0,1,.72-1,4.32,4.32,0,0,1,1.12-.69,9.64,9.64,0,0,1,1.46-.47c.68-.16,1.21-.3,1.6-.42a4.12,4.12,0,0,0,.88-.36.9.9,0,0,0,.37-.39A1.64,1.64,0,0,0,115,30a2,2,0,0,0-.61-1.48,2.28,2.28,0,0,0-1.69-.61,3.59,3.59,0,0,0-.84.11,3.91,3.91,0,0,0-.83.3,6.19,6.19,0,0,0-.72.42,1.75,1.75,0,0,0-.49.49h-.17ZM115,34.29c0-.69,0-1.21,0-1.57s0-.68,0-.95a5.69,5.69,0,0,1-1.07.47,5.34,5.34,0,0,0-1,.45,2.33,2.33,0,0,0-.77.76,2.63,2.63,0,0,0-.3,1.39,2.2,2.2,0,0,0,.37,1.36,1.21,1.21,0,0,0,1,.46,1.53,1.53,0,0,0,1.28-.6A2.71,2.71,0,0,0,115,34.29Z" />
      <path class="cls-1"
        d="M124.6,28.19a5.07,5.07,0,0,1,1.57-1.56,3.9,3.9,0,0,1,2-.55,3.62,3.62,0,0,1,2.77,1,4.88,4.88,0,0,1,1,3.38c0,.81,0,1.53,0,2.16s0,1.25,0,1.87,0,1.07,0,1.67.06,1.18.09,1.74a4.42,4.42,0,0,0-.79,0h-2a4.42,4.42,0,0,0-.79,0A28.7,28.7,0,0,0,128.6,35c0-1.13.05-2.42.05-3.88a3.83,3.83,0,0,0-.51-2.22,1.71,1.71,0,0,0-1.46-.71,1.69,1.69,0,0,0-1.58.94,5.47,5.47,0,0,0-.5,2.59v1q0,1.47,0,2.76c0,.87.08,1.7.16,2.5a4.37,4.37,0,0,0-.78,0h-2a4.63,4.63,0,0,0-.79,0c.08-.8.13-1.63.15-2.5s0-1.78,0-2.76v-1c0-1,0-1.89,0-2.75s-.07-1.71-.15-2.58l.85.09c.28,0,.56,0,.85,0s.57,0,.85,0l.9-.09-.09,1.8Z" />
      <path class="cls-1"
        d="M145.14,29.7c0,1.57,0,3,.05,4.33s.08,2.61.14,3.91a4.42,4.42,0,0,0-.79,0h-1.93a3.13,3.13,0,0,0-.69,0,1,1,0,0,0,.05-.32c0-.17,0-.37.06-.59s.05-.44.06-.63,0-.31,0-.36l-.05,0a3.94,3.94,0,0,1-1.25,1.67,3.62,3.62,0,0,1-2.18.59,4.33,4.33,0,0,1-2.09-.47,3.88,3.88,0,0,1-1.42-1.31,5.87,5.87,0,0,1-.81-2,10.46,10.46,0,0,1-.27-2.43,7.63,7.63,0,0,1,.36-2.39,6.17,6.17,0,0,1,1-1.89,4.42,4.42,0,0,1,1.47-1.26,3.72,3.72,0,0,1,1.81-.46,3.81,3.81,0,0,1,1.94.5,3.43,3.43,0,0,1,1.26,1.28h0c0-1.44,0-2.8,0-4.07s-.08-2.59-.15-3.95l.79.09c.32,0,.66,0,1,0s.69,0,1,0l.79-.09c-.06,1.34-.11,2.67-.14,4s-.05,2.75-.05,4.31Zm-7.54,2.74a10.92,10.92,0,0,0,.17,2.07,4.61,4.61,0,0,0,.46,1.35,1.86,1.86,0,0,0,.66.74,1.41,1.41,0,0,0,.78.23,1.88,1.88,0,0,0,1.62-1.11,8,8,0,0,0,.63-3.71,6.66,6.66,0,0,0-.6-3.25,1.76,1.76,0,0,0-1.53-1A1.6,1.6,0,0,0,139,28a2,2,0,0,0-.7.76,5.26,5.26,0,0,0-.51,1.45A10.41,10.41,0,0,0,137.6,32.44Z" />
      <path class="cls-1"
        d="M152.92,33.93c.28-.74.55-1.42.79-2.05s.47-1.25.68-1.84.43-1.18.63-1.77.4-1.22.61-1.88l.49.09a3.59,3.59,0,0,0,.47,0,3.87,3.87,0,0,0,.48,0l.53-.09c-.08.21-.27.66-.57,1.33s-.65,1.53-1.08,2.53-.89,2.1-1.4,3.32L153,37.25c-.52,1.24-1,2.47-1.51,3.69s-.92,2.32-1.29,3.31l-.5-.09a4.07,4.07,0,0,0-.5,0,4.12,4.12,0,0,0-.51,0l-.5.09,1.56-3.13c.51-1,1-2.08,1.49-3.13-.39-.92-.82-2-1.29-3.1s-.93-2.28-1.39-3.38-.87-2.12-1.25-3-.66-1.61-.85-2.09c.3,0,.6.06.9.09s.6,0,.9,0,.6,0,.89,0l.89-.09c.46,1.27.93,2.52,1.4,3.77S152.4,32.67,152.92,33.93Z" />
      <path class="cls-1"
        d="M159.9,24.59a18.61,18.61,0,0,1,.75-2.4,2.39,2.39,0,0,1,.67-1.05,1.34,1.34,0,0,1,.81-.24,2.06,2.06,0,0,1,.59.09,2,2,0,0,1,.55.28,1.25,1.25,0,0,1,.41.47,1.36,1.36,0,0,1,.16.65,1.88,1.88,0,0,1,0,.31,1.65,1.65,0,0,1-.19.44l-.43.73c-.19.31-.44.69-.77,1.16l-1.2,1.69c-.47.66-1,1.46-1.72,2.38l-.6-.23C159.29,27.07,159.63,25.65,159.9,24.59Z" />
      <path class="cls-1"
        d="M164.52,35.72a2.74,2.74,0,0,0,.56.62,2.88,2.88,0,0,0,.81.45A3.25,3.25,0,0,0,167,37a1.82,1.82,0,0,0,1.3-.43,1.29,1.29,0,0,0,.45-.94,1.06,1.06,0,0,0-.41-.88,4.45,4.45,0,0,0-1-.62c-.4-.18-.85-.37-1.33-.56a5.92,5.92,0,0,1-1.33-.73,3.78,3.78,0,0,1-1-1.12,3.27,3.27,0,0,1-.41-1.72,3.93,3.93,0,0,1,.37-1.75,3.58,3.58,0,0,1,1-1.19,4,4,0,0,1,1.35-.7,5.31,5.31,0,0,1,1.5-.23,5.21,5.21,0,0,1,1.79.29,7.5,7.5,0,0,1,1.6.84,5.44,5.44,0,0,0-.36,1,9,9,0,0,0-.22,1.08h-.67a4,4,0,0,0-.24-.64,2.57,2.57,0,0,0-.46-.65,2.41,2.41,0,0,0-.69-.52,2.16,2.16,0,0,0-1-.2,1.88,1.88,0,0,0-1.21.38,1.21,1.21,0,0,0-.49,1,1.13,1.13,0,0,0,.42.92,4.13,4.13,0,0,0,1,.61c.42.18.87.36,1.37.53a6.28,6.28,0,0,1,1.37.69,3.51,3.51,0,0,1,1,1.09,3.21,3.21,0,0,1,.42,1.73,4.06,4.06,0,0,1-.38,1.81,3.7,3.7,0,0,1-1,1.25,4.3,4.3,0,0,1-1.48.7,6.59,6.59,0,0,1-1.74.22,5.85,5.85,0,0,1-1.94-.31,6.54,6.54,0,0,1-1.37-.65,13.23,13.23,0,0,0,.36-2.3h.6A3.58,3.58,0,0,0,164.52,35.72Z" />
      <path class="cls-1"
        d="M180.85,26.22c0-1.1,0-2,0-2.78s-.05-1.41-.07-2a4.92,4.92,0,0,0,2.16,0l5.17,5.71c1.71,1.87,3.46,3.78,5.25,5.71V28.46c0-.79,0-1.56,0-2.32s0-1.46,0-2.1,0-1.19-.05-1.65a7.7,7.7,0,0,0-.08-.94,4.92,4.92,0,0,0,2.16,0c-.08,1.46-.14,2.77-.19,3.95s-.09,2.28-.12,3.32-.05,2.07-.06,3.09,0,2.1,0,3.25v2.88a8,8,0,0,0-1,0,6.52,6.52,0,0,0-.93,0q-5-5.76-10.49-11.59c0,.46,0,.92,0,1.39s0,.93,0,1.41v2.79c0,1,0,1.77,0,2.45s0,1.24,0,1.7,0,.84.05,1.14,0,.53,0,.71a2.75,2.75,0,0,0-.57,0h-.55a10.31,10.31,0,0,0-1.11,0c0-.13.07-.59.12-1.37s.1-1.74.16-2.87.1-2.35.14-3.67S180.85,27.44,180.85,26.22Z" />
      <path class="cls-1"
        d="M198,32.49a7.34,7.34,0,0,1,.5-2.81,5.78,5.78,0,0,1,1.3-2,5.25,5.25,0,0,1,1.89-1.2,6.11,6.11,0,0,1,2.19-.4,5.8,5.8,0,0,1,4.35,1.58,5.94,5.94,0,0,1,1.53,4.3,7.54,7.54,0,0,1-.43,2.64,5.73,5.73,0,0,1-1.21,2,4.8,4.8,0,0,1-1.86,1.24,6.72,6.72,0,0,1-2.38.41,8,8,0,0,1-2.12-.29,4.95,4.95,0,0,1-3.24-2.76A6.42,6.42,0,0,1,198,32.49Zm8.21-.89a7.94,7.94,0,0,0-.53-3.27,1.79,1.79,0,0,0-1.75-1.17,1.94,1.94,0,0,0-1.74,1.3,9.74,9.74,0,0,0-.63,4,13.82,13.82,0,0,0,.12,1.88,6.07,6.07,0,0,0,.39,1.5,2.7,2.7,0,0,0,.72,1,1.73,1.73,0,0,0,1.12.36Q206.17,37.24,206.17,31.6Z" />
      <path class="cls-1"
        d="M218,27.16a2.35,2.35,0,0,0,.07.6L216,27.71c0,.37-.06.8-.09,1.28s0,1,0,1.46,0,1,0,1.44,0,.86,0,1.17c0,.84,0,1.51.06,2a5.25,5.25,0,0,0,.2,1.18,1,1,0,0,0,.41.55,1.36,1.36,0,0,0,.67.14,2.81,2.81,0,0,0,.68-.06,2.2,2.2,0,0,0,.43-.18v1a6.83,6.83,0,0,1-1.2.38,6.33,6.33,0,0,1-1.42.17q-3,0-3.05-3.65c0-.46,0-1,0-1.57s0-1.18.06-1.8,0-1.22.06-1.82,0-1.16,0-1.67l-1.68,0a2.35,2.35,0,0,0,.07-.6,3.21,3.21,0,0,0-.07-.65l1.68.07c0-.49,0-1,0-1.39s0-1-.07-1.56c.56-.22,1.11-.46,1.65-.7s1.09-.51,1.63-.79l.24.17c0,.26-.06.56-.08.9s-.05.71-.07,1.08,0,.76-.05,1.16,0,.76,0,1.11l2.11,0A3.21,3.21,0,0,0,218,27.16Z" />
      <path class="cls-1"
        d="M222.85,32.2A8.57,8.57,0,0,0,223,34a4.64,4.64,0,0,0,.59,1.45,2.89,2.89,0,0,0,1,1,2.76,2.76,0,0,0,1.43.35,4.48,4.48,0,0,0,3-1.08l.29.22-.53,1.34a4.64,4.64,0,0,1-1.44.73,7.08,7.08,0,0,1-2.21.28,7.76,7.76,0,0,1-2.23-.32A5,5,0,0,1,221,36.86,5.2,5.2,0,0,1,219.77,35a7.16,7.16,0,0,1-.47-2.72,7.91,7.91,0,0,1,.42-2.71,5.39,5.39,0,0,1,1.16-1.92,4.76,4.76,0,0,1,1.77-1.15,6.17,6.17,0,0,1,2.22-.39,4.67,4.67,0,0,1,3.63,1.39,5.67,5.67,0,0,1,1.26,3.94v.5a1,1,0,0,1,0,.29Zm3.7-1.08a9,9,0,0,0-.45-2.88,1.38,1.38,0,0,0-1.33-1.08,1.21,1.21,0,0,0-.89.36,2.53,2.53,0,0,0-.57.93,6.18,6.18,0,0,0-.33,1.27,13.49,13.49,0,0,0-.13,1.4Z" />
      <path class="cls-1"
        d="M113.37,57l-2.09-7.88h1.07l1.19,5.16c.13.54.24,1.08.34,1.61.2-.84.32-1.32.35-1.45l1.5-5.32H117l1.12,4a20.79,20.79,0,0,1,.62,2.78q.15-.73.39-1.71l1.23-5.06h1.05L119.24,57h-1l-1.66-6c-.14-.51-.22-.81-.25-.93-.08.36-.16.67-.23.93l-1.67,6Z" />
      <path class="cls-1"
        d="M122.59,57V51.26h.87v.87a2.17,2.17,0,0,1,.62-.8,1,1,0,0,1,.62-.2,2,2,0,0,1,1,.31l-.33.9a1.41,1.41,0,0,0-.71-.21,1,1,0,0,0-.57.19,1.05,1.05,0,0,0-.36.53,3.72,3.72,0,0,0-.16,1.13v3Z" />
      <path class="cls-1" d="M126.82,50.2V49.09h1V50.2Zm0,6.77V51.26h1V57Z" />
      <path class="cls-1"
        d="M131.92,56.1l.14.85a3.45,3.45,0,0,1-.73.09,1.59,1.59,0,0,1-.82-.17.94.94,0,0,1-.41-.43A3.8,3.8,0,0,1,130,55.3V52h-.71v-.75H130V49.85l1-.58v2h1V52h-1v3.34a1.54,1.54,0,0,0,.05.53.42.42,0,0,0,.16.19.64.64,0,0,0,.34.07A2.61,2.61,0,0,0,131.92,56.1Z" />
      <path class="cls-1"
        d="M137.32,55.13l1,.12a2.41,2.41,0,0,1-.88,1.36,2.63,2.63,0,0,1-1.63.48,2.58,2.58,0,0,1-2-.77,3,3,0,0,1-.74-2.16,3.16,3.16,0,0,1,.74-2.23,2.53,2.53,0,0,1,1.93-.8,2.45,2.45,0,0,1,1.87.78,3.11,3.11,0,0,1,.72,2.19v.26h-4.26a2.19,2.19,0,0,0,.53,1.44,1.61,1.61,0,0,0,1.2.5,1.44,1.44,0,0,0,.9-.28A1.89,1.89,0,0,0,137.32,55.13Zm-3.17-1.56h3.18a1.92,1.92,0,0,0-.36-1.08,1.47,1.47,0,0,0-1.2-.56,1.55,1.55,0,0,0-1.12.44A1.78,1.78,0,0,0,134.15,53.57Z" />
      <path class="cls-1" d="M143.77,57V49.09h1V56h3.88V57Z" />
      <path class="cls-1" d="M150.36,50.2V49.09h1V50.2Zm0,6.77V51.26h1V57Z" />
      <path class="cls-1"
        d="M153.58,57V52h-.85v-.75h.85v-.61a2.93,2.93,0,0,1,.1-.85,1.32,1.32,0,0,1,.49-.61,1.86,1.86,0,0,1,1-.23,5.07,5.07,0,0,1,.9.09l-.14.85a2.91,2.91,0,0,0-.57-.06.85.85,0,0,0-.62.19,1,1,0,0,0-.19.71v.52h1.11V52h-1.11v5Z" />
      <path class="cls-1"
        d="M160.86,55.13l1,.12a2.41,2.41,0,0,1-.88,1.36,2.63,2.63,0,0,1-1.63.48,2.58,2.58,0,0,1-2-.77,3,3,0,0,1-.74-2.16,3.12,3.12,0,0,1,.75-2.23,2.5,2.5,0,0,1,1.92-.8,2.45,2.45,0,0,1,1.87.78,3.11,3.11,0,0,1,.72,2.19v.26h-4.26a2.2,2.2,0,0,0,.54,1.44,1.57,1.57,0,0,0,1.19.5,1.49,1.49,0,0,0,.91-.28A1.88,1.88,0,0,0,160.86,55.13Zm-3.17-1.56h3.18a1.92,1.92,0,0,0-.36-1.08,1.47,1.47,0,0,0-1.2-.56,1.56,1.56,0,0,0-1.12.44A1.78,1.78,0,0,0,157.69,53.57Z" />
      <path class="cls-1"
        d="M171.73,56a3.2,3.2,0,0,1-1,.79,2.79,2.79,0,0,1-1.22.27,2.39,2.39,0,0,1-1.92-.82A2.22,2.22,0,0,1,167,54.8a2,2,0,0,1,.47-1.32,3.85,3.85,0,0,1,1.4-1,4.87,4.87,0,0,1-.71-1,1.69,1.69,0,0,1-.17-.74,1.64,1.64,0,0,1,.55-1.23,2,2,0,0,1,1.4-.52,1.81,1.81,0,0,1,1.32.49,1.6,1.6,0,0,1,.51,1.19c0,.75-.49,1.39-1.49,1.92l1.42,1.8a4.58,4.58,0,0,0,.37-1.1l1,.21a5.47,5.47,0,0,1-.7,1.7,5.64,5.64,0,0,0,1.23,1.21l-.65.77A5.73,5.73,0,0,1,171.73,56Zm-.61-.77-1.77-2.19a3.61,3.61,0,0,0-1.06.86,1.45,1.45,0,0,0-.27.8,1.69,1.69,0,0,0,.38,1,1.29,1.29,0,0,0,1.08.52,1.71,1.71,0,0,0,.9-.28A2.07,2.07,0,0,0,171.12,55.27Zm-1.35-3.34a2.46,2.46,0,0,0,.81-.65,1.09,1.09,0,0,0,.18-.61.89.89,0,0,0-.25-.66.87.87,0,0,0-.64-.26.92.92,0,0,0-.65.25.85.85,0,0,0-.26.62,1,1,0,0,0,.09.39,2.28,2.28,0,0,0,.29.42Z" />
      <path class="cls-1"
        d="M184.46,54.2l1,.27a3.53,3.53,0,0,1-1.18,2,3.24,3.24,0,0,1-2.08.67,3.69,3.69,0,0,1-2.07-.52,3.16,3.16,0,0,1-1.22-1.5,5.29,5.29,0,0,1-.41-2.11,4.57,4.57,0,0,1,.47-2.15,3.19,3.19,0,0,1,1.33-1.39,4,4,0,0,1,1.91-.47,3.24,3.24,0,0,1,2,.6,3.08,3.08,0,0,1,1.12,1.69l-1,.24a2.47,2.47,0,0,0-.8-1.25,2.12,2.12,0,0,0-1.31-.39,2.57,2.57,0,0,0-1.52.43,2.29,2.29,0,0,0-.85,1.17,4.6,4.6,0,0,0-.25,1.51,5,5,0,0,0,.29,1.76,2.22,2.22,0,0,0,.91,1.12,2.62,2.62,0,0,0,1.34.37,2.22,2.22,0,0,0,1.48-.51A2.5,2.5,0,0,0,184.46,54.2Z" />
      <path class="cls-1"
        d="M186.86,54.11a2.91,2.91,0,0,1,.88-2.34,2.62,2.62,0,0,1,1.79-.64,2.58,2.58,0,0,1,1.93.77A3,3,0,0,1,192.2,54a3.82,3.82,0,0,1-.33,1.74,2.38,2.38,0,0,1-1,1,2.82,2.82,0,0,1-1.38.34,2.55,2.55,0,0,1-1.93-.76A3.06,3.06,0,0,1,186.86,54.11Zm1,0a2.41,2.41,0,0,0,.48,1.64,1.58,1.58,0,0,0,2.4,0,2.47,2.47,0,0,0,.48-1.67,2.35,2.35,0,0,0-.48-1.6,1.58,1.58,0,0,0-2.4,0A2.39,2.39,0,0,0,187.85,54.11Z" />
      <path class="cls-1"
        d="M197.59,57v-.72a1.8,1.8,0,0,1-1.6.84,2.23,2.23,0,0,1-1.25-.37,2.49,2.49,0,0,1-.89-1,3.64,3.64,0,0,1-.31-1.55,4,4,0,0,1,.28-1.55A2.22,2.22,0,0,1,196,51.13a1.87,1.87,0,0,1,.92.22,2,2,0,0,1,.65.57V49.09h1V57Zm-3.06-2.85a2.47,2.47,0,0,0,.46,1.64,1.4,1.4,0,0,0,1.09.54,1.37,1.37,0,0,0,1.08-.52,2.4,2.4,0,0,0,.44-1.58,2.7,2.7,0,0,0-.45-1.72,1.4,1.4,0,0,0-1.11-.55,1.35,1.35,0,0,0-1.08.53A2.58,2.58,0,0,0,194.53,54.12Z" />
      <path class="cls-1"
        d="M204.46,55.13l1,.12a2.41,2.41,0,0,1-.88,1.36,2.65,2.65,0,0,1-1.63.48,2.59,2.59,0,0,1-2-.77,3,3,0,0,1-.73-2.16,3.16,3.16,0,0,1,.74-2.23,2.53,2.53,0,0,1,1.92-.8,2.42,2.42,0,0,1,1.87.78,3.07,3.07,0,0,1,.73,2.19c0,.06,0,.15,0,.26h-4.25a2.14,2.14,0,0,0,.53,1.44,1.6,1.6,0,0,0,1.19.5,1.45,1.45,0,0,0,.91-.28A1.89,1.89,0,0,0,204.46,55.13Zm-3.18-1.56h3.19a2,2,0,0,0-.37-1.08,1.46,1.46,0,0,0-1.2-.56,1.54,1.54,0,0,0-1.11.44A1.79,1.79,0,0,0,201.28,53.57Z" />
      <line class="cls-1" x1="89.01" y1="53.83" x2="105.51" y2="53.83" />
      <rect class="cls-2" x="89.01" y="53.7" width="16.5" height="0.25" />
      <line class="cls-1" x1="212.51" y1="53.83" x2="229.01" y2="53.83" />
      <rect class="cls-2" x="212.51" y="53.7" width="16.5" height="0.25" />
      <g class="cls-3">
        <path class="cls-4"
          d="M2.41,25.93c.18-.32.37-.64.56-1C10.5,12.76,27.52-2.59,43,.37,60.43,3.71,85,18,73.1,36.37,68.46,43.49,65.88,52,58.5,57,48.74,63.53,34.23,62.48,23,61.79c-8.22-.5-16.17-3.08-19.62-11.21C.06,42.67-1.75,33.63,2.41,25.93Z" />
      </g>
      <path class="cls-1"
        d="M28.42,29s-.72-4.1-4.13-2.65c-2.17.91-2.3,3-3.64,4.65S16.8,34,15,32.3c0,0,1.54,4.74,5.9,3.86L33,34.41Z" />
      <path class="cls-1"
        d="M31.36,31.77l12.39,1.14c2-1.14,2.6.34,2.6.34-2-3.53,1.16-7.79,1.84-11.29a19,19,0,0,0-.06-9,10.18,10.18,0,0,0-7.68-7,14.29,14.29,0,0,0-4.37-.4c-4.52-1.68-9.24.79-11.42,4.86A18.91,18.91,0,0,0,22.54,20c.12,3.09,1.29,5,3.93,6.22M31,27.58h0Z" />
      <path class="cls-1"
        d="M28.57,31.75s-4.81-2.49-13.72,7.36c0,0-5.55,5.62-7.59,11.49-2.39,6.89,3.33,16.34,11.23,14.91a15.92,15.92,0,0,0,7.79-3.73,7.82,7.82,0,0,1,3.29-1.88l10.41,0,3.63.06a15.78,15.78,0,0,1,6.22,1.7,7.66,7.66,0,0,0,4.28.84c4.82-.43,9.3-5.61,7.71-10.48a16.33,16.33,0,0,0-3.49-5.46A33.68,33.68,0,0,0,56,44.13c-.63-.58-2-1.32-2.38-2.05,0,0-6.77-12.3-11.31-11.63Z" />
      <path class="cls-5"
        d="M33.29,35.34a14.41,14.41,0,0,0,3.49,1.78c2.54.86,4.9-.89,6.4-2.81a10.23,10.23,0,0,0,2.53-5.68c.07-.9-.42-1.79-.37-2.63.08-1.45,2-5.45,2-5.45-1.7,3.61-14.14-.8-14.14-.8C31.22,19,32,14,32,14c-1.75,1.21-2.93,5.55-2.94,5.56a5.21,5.21,0,0,1-.39,1.37c-.46.75-.49.5-1.12.19-1-.51-2.61-1-2.84.66-.35,2.47,1.87,2.45,2.52,4.59a14.24,14.24,0,0,0,1.13,3.54,2.1,2.1,0,0,1,.17,1.84,9.1,9.1,0,0,1-1,1.15l.7,2.27c2.72,6.29,8.44,5.58,8.44,5.58,2-.29,2.43-3.4,2.43-3.4" />
      <path class="cls-2"
        d="M36.24,41a8.72,8.72,0,0,1-8.11-5.71l-.81-2.61.22.06a8.67,8.67,0,0,0,.87-1A2,2,0,0,0,28.24,30a14.71,14.71,0,0,1-1.15-3.59,4,4,0,0,0-1.31-1.82,2.83,2.83,0,0,1-1.21-2.82,1.45,1.45,0,0,1,.69-1.16,2.92,2.92,0,0,1,2.41.35l.31.17c.3.18.3.18.58-.29a2.68,2.68,0,0,0,.27-.87c0-.15.06-.3.1-.44.12-.46,1.27-4.47,3-5.67l.35-.24-.07.42c0,.05-.78,4.85,1,5.55.12,0,12.29,4.31,13.91.89l.32.16s-1.87,4-1.95,5.38a4.37,4.37,0,0,0,.18,1.2,4.57,4.57,0,0,1,.19,1.43,10.61,10.61,0,0,1-2.56,5.78,8.41,8.41,0,0,1-4,2.95h0c0,.14-.47,3.26-2.59,3.56C36.74,40.93,36.56,41,36.24,41Zm-8.45-8c.14.44.67,2.18.67,2.18a8.65,8.65,0,0,0,5.11,5,7.68,7.68,0,0,0,3.14.43c1.62-.23,2.14-2.54,2.25-3.12a4.34,4.34,0,0,1-2.24-.15,15.16,15.16,0,0,1-3.53-1.81l.2-.3A14.44,14.44,0,0,0,36.84,37c2.88,1,5.3-1.6,6.2-2.75a10.09,10.09,0,0,0,2.49-5.58,4.57,4.57,0,0,0-.18-1.32A4.24,4.24,0,0,1,45.16,26a19,19,0,0,1,1.52-4.49c-3.22,2.05-13.1-1.41-13.57-1.58-1.72-.67-1.47-4.19-1.31-5.48-1.47,1.42-2.48,5-2.53,5.17s-.06.27-.09.42a2.86,2.86,0,0,1-.31,1c-.41.67-.6.69-1.07.41-.08,0-.17-.1-.29-.15-.53-.27-1.5-.66-2.08-.36a1.1,1.1,0,0,0-.5.89A2.51,2.51,0,0,0,26,24.32a4.34,4.34,0,0,1,1.41,2,14.87,14.87,0,0,0,1.12,3.51,2.29,2.29,0,0,1,.18,2A10.24,10.24,0,0,1,27.79,32.94Z" />
      <path class="cls-5"
        d="M28.57,31.75a3.23,3.23,0,0,0-2.05-.33,8.38,8.38,0,0,0-2,.56A19,19,0,0,0,20.8,34c-1.14.84-2.26,1.71-3.32,2.65a30.34,30.34,0,0,0-3,3A46,46,0,0,0,9.3,46.4c-1.44,2.4-2.78,5.06-2.59,7.94a10.06,10.06,0,0,1,.52-4.21,22.82,22.82,0,0,1,1.83-3.87,43.83,43.83,0,0,1,5.14-6.82,32.09,32.09,0,0,1,3.06-3,37.31,37.31,0,0,1,3.38-2.63,20.1,20.1,0,0,1,3.78-2,8.92,8.92,0,0,1,2.09-.48A3.26,3.26,0,0,1,28.57,31.75Z" />
      <path class="cls-5"
        d="M16.2,52.89A20.71,20.71,0,0,1,20.47,51a10.61,10.61,0,0,1,2.32-.47,3.71,3.71,0,0,1,1.19.12,1,1,0,0,1,.73.89,1,1,0,0,0-.78-.72,3.24,3.24,0,0,0-1.12,0,12.46,12.46,0,0,0-2.23.53C19.1,51.77,17.66,52.35,16.2,52.89Z" />
      <path class="cls-5"
        d="M16.2,51.52a1.52,1.52,0,0,1,1.35-.43,2.34,2.34,0,0,1,.69.23,2,2,0,0,1,.56.44,8.69,8.69,0,0,0-1.3-.31A2.89,2.89,0,0,0,16.2,51.52Z" />
      <path class="cls-5"
        d="M39.64,37.34a8.16,8.16,0,0,1-.54,2.32,3.25,3.25,0,0,1-1.74,1.66A6,6,0,0,1,32.62,41a9.38,9.38,0,0,1-3.52-3.24,11.4,11.4,0,0,1-1.77-4.42,13,13,0,0,0,2,4.26,9.45,9.45,0,0,0,3.46,3.07,5.79,5.79,0,0,0,4.48.42,3.07,3.07,0,0,0,1.68-1.49A7.8,7.8,0,0,0,39.64,37.34Z" />
      <path class="cls-5"
        d="M35.34,21.08h0a3.26,3.26,0,0,1-2.16-1.49c-1.59-2.47-.59-6.95-.55-7.14a.15.15,0,0,1,.19-.12.16.16,0,0,1,.13.19c0,.05-1,4.54.51,6.9a2.94,2.94,0,0,0,1.95,1.34.18.18,0,0,1,.13.2A.18.18,0,0,1,35.34,21.08Z" />
      <path class="cls-5"
        d="M41.32,22.32h0c-2.8-.16-4.78-1-5.89-2.52a5.49,5.49,0,0,1-.81-4.3.17.17,0,0,1,.22-.13.19.19,0,0,1,.13.22,5.19,5.19,0,0,0,.76,4c1,1.41,2.92,2.21,5.62,2.37a.18.18,0,0,1,.17.19A.18.18,0,0,1,41.32,22.32Z" />
      <path class="cls-5" d="M40.25,27.58s-.9,1.28.61,2.77" />
      <path class="cls-2"
        d="M40.25,27.58a2.68,2.68,0,0,0,0,1.43,5.58,5.58,0,0,0,.63,1.34,2,2,0,0,1-.61-.51,2.31,2.31,0,0,1-.38-.73A1.57,1.57,0,0,1,40.25,27.58Z" />
      <path class="cls-5"
        d="M28.36,17.44H28.3a.16.16,0,0,1-.09-.22,5.82,5.82,0,0,1,3.44-3.56.16.16,0,0,1,.2.11.15.15,0,0,1-.11.2,5.68,5.68,0,0,0-3.23,3.38A.18.18,0,0,1,28.36,17.44Z" />
      <ellipse class="cls-5" cx="35.82" cy="24.99" rx="3.41" ry="3.56"
        transform="translate(5.3 56.23) rotate(-80.58)" />
      <path class="cls-2"
        d="M35.88,28.61a3.64,3.64,0,0,1-.57,0,3.71,3.71,0,0,1-3.23-4.12,3.54,3.54,0,0,1,1.39-2.33,3.81,3.81,0,0,1,2.86-.71,3.71,3.71,0,0,1,3.22,4.12h0a3.48,3.48,0,0,1-1.39,2.33A3.8,3.8,0,0,1,35.88,28.61Zm-.13-6.82a3.39,3.39,0,0,0-2,.67,3.08,3.08,0,0,0-1.22,2.05,3.3,3.3,0,0,0,2.87,3.65,3.42,3.42,0,0,0,2.54-.64,3.11,3.11,0,0,0,1.23-2.05h0a3.29,3.29,0,0,0-2.87-3.64A3,3,0,0,0,35.75,21.79Z" />
      <ellipse class="cls-5" cx="43.79" cy="25.82" rx="3.07" ry="3.21"
        transform="matrix(0.16, -0.99, 0.99, 0.16, 11.16, 64.79)" />
      <path class="cls-2"
        d="M43.85,29.08a4.73,4.73,0,0,1-.52,0,3.34,3.34,0,0,1-2.9-3.71,3.19,3.19,0,0,1,1.25-2.09,3.46,3.46,0,0,1,2.57-.65,3.35,3.35,0,0,1,2.91,3.71h0a3.18,3.18,0,0,1-1.26,2.1A3.43,3.43,0,0,1,43.85,29.08Zm-.11-6.14a3,3,0,0,0-1.83.6,2.8,2.8,0,0,0-1.1,1.84,3,3,0,0,0,2.58,3.28,3.05,3.05,0,0,0,2.29-.57,2.78,2.78,0,0,0,1.1-1.84h0A3,3,0,0,0,44.2,23,3.55,3.55,0,0,0,43.74,22.94Z" />
      <path class="cls-5" d="M39.34,25.5a1.56,1.56,0,0,1,1.24.14" />
      <path class="cls-2" d="M40.45,25.81a1.35,1.35,0,0,0-1-.11l-.13-.4a1.74,1.74,0,0,1,1.42.17Z" />
      <path class="cls-5"
        d="M29.16,55.6c.71.22,1.9.3,2.05.51a5.68,5.68,0,0,0,1.27,1.31,7.05,7.05,0,0,1,.35,1.44c.39.5.51.24.63,0a2,2,0,0,0-.05-1.66,5.26,5.26,0,0,0-.84-1.35,2.94,2.94,0,0,0,.4,0l1,.66a13.3,13.3,0,0,1,.6,2.28c.12.31.4,1,.74,1.11s.34-.71.29-.92l-.25-1.63C35.21,57,35,55.93,35,55.93c.76.84.79,1.08.79,1.08a6.3,6.3,0,0,1,.68,1.73c.12.28.64,1,.93.5.09-.14,0-.43,0-.58a8.56,8.56,0,0,0-.25-1.14c-.07-.24-.24-.73-.24-.73l-.47-1.34c.61.8.68.77.68.77l.6.68c.29.44.3,1.21.62,1.5s1,.57.66-.4l-.52-1.92a1.69,1.69,0,0,0-.51-.83l-.66-.61-1.1-1.48a1.65,1.65,0,0,0,.9.52c.3.09.78.4,1.07.26.1,0,.33-.28.18-.41L37.84,53A7.15,7.15,0,0,0,36.13,52c-.26-.11-.54-.07-.8-.17s-.44-.28-.68-.37c-.44-.17-.87,0-1.32,0-1.5-.11-3.06-.13-4.55-.39a3.2,3.2,0,0,0-2.07,0l-1.59.86c-.16.08,0,1.14,0,1.27a11,11,0,0,0,.37,2.41,3.67,3.67,0,0,0,.45,1c0,.07.72.71.74.64a2.32,2.32,0,0,1,.95-1.69A2.65,2.65,0,0,1,29.16,55.6Z" />
      <path class="cls-2"
        d="M35.37,60.08l-.14,0c-.39-.14-.67-.83-.8-1.16a14.45,14.45,0,0,0-.59-2.26l-.9-.63h-.17l.15.2a3,3,0,0,1,.58,1l0,0a2.09,2.09,0,0,1,0,1.7v0c-.07.13-.15.28-.3.29s-.29-.08-.47-.32l0,0v0a7.33,7.33,0,0,0-.33-1.39,5.92,5.92,0,0,1-1.28-1.32,3,3,0,0,0-1-.26c-.36-.06-.72-.13-1-.21h0a2.46,2.46,0,0,0-1.46-.17,2.21,2.21,0,0,0-.92,1.61v.08l-.08,0h0c-.18,0-.82-.68-.82-.69a3.47,3.47,0,0,1-.46-1A10.56,10.56,0,0,1,25,53.08.55.55,0,0,1,25,53c-.1-1-.05-1.2.08-1.27h0l1.59-.86a2.51,2.51,0,0,1,1.73,0l.4.08a28.22,28.22,0,0,0,3.19.3l1.35.09a3.85,3.85,0,0,0,.48,0,1.69,1.69,0,0,1,.86.06,2,2,0,0,1,.35.19,1.79,1.79,0,0,0,.33.18,1.35,1.35,0,0,0,.36.07,1.82,1.82,0,0,1,.45.1A7.35,7.35,0,0,1,37.9,53l.58.51a.23.23,0,0,1,.07.21.58.58,0,0,1-.28.36,1.1,1.1,0,0,1-.86-.15l-.27-.1-.41-.15.71.95.65.6a1.84,1.84,0,0,1,.53.89h0l.52,1.9c.12.39.1.63-.06.73s-.64-.12-.76-.23a1.74,1.74,0,0,1-.36-.81,2.62,2.62,0,0,0-.27-.7l-.57-.66a1.16,1.16,0,0,1-.35-.35l.28.81s.17.49.24.73a7.24,7.24,0,0,1,.25,1.16v.08a1,1,0,0,1,0,.56.38.38,0,0,1-.36.22c-.34,0-.67-.55-.75-.73a6.4,6.4,0,0,1-.2-.62,2.89,2.89,0,0,0-.44-1h0V57a2.73,2.73,0,0,0-.55-.79c.06.35.15.88.21,1.15L35.65,59s.16.76-.1,1A.3.3,0,0,1,35.37,60.08ZM33,55.81l1,.7v0a12.74,12.74,0,0,1,.6,2.3c.1.23.38.92.68,1,.09,0,.13,0,.14,0s.09-.53,0-.81l-.25-1.64c-.09-.41-.27-1.47-.27-1.48l0-.32.22.24A3.84,3.84,0,0,1,35.92,57a3.06,3.06,0,0,1,.49,1.14,5.26,5.26,0,0,0,.19.6c.09.21.37.6.58.61,0,0,.11,0,.18-.13a.89.89,0,0,0,0-.43.28.28,0,0,0,0-.09,7,7,0,0,0-.24-1.12c-.07-.24-.24-.72-.24-.72l-.66-1.91.36.48a6.23,6.23,0,0,0,.61.72h0l.64.73a2.47,2.47,0,0,1,.3.77,1.61,1.61,0,0,0,.31.72c.16.14.43.27.53.21s.08-.19,0-.51c0,0-.47-1.73-.52-1.93a1.76,1.76,0,0,0-.48-.78l-.66-.61-1.06-1.42-.05-.07h0s0,0,0-.05v-.29l.17.23a1.57,1.57,0,0,0,.85.49l.29.11c.24.11.54.24.71.15a.37.37,0,0,0,.17-.21s0,0,0,0l-.58-.5a6.76,6.76,0,0,0-1.67-1,1.79,1.79,0,0,0-.4-.09,1.56,1.56,0,0,1-.41-.08,1.58,1.58,0,0,1-.36-.2,1.66,1.66,0,0,0-.32-.17,1.54,1.54,0,0,0-.77-.05,4.35,4.35,0,0,1-.51,0L32,51.4a28.58,28.58,0,0,1-3.21-.3L28.35,51a2.26,2.26,0,0,0-1.6,0l-1.58.86s-.07.2,0,1.08c0,.05,0,.08,0,.1a10.58,10.58,0,0,0,.36,2.39,3.56,3.56,0,0,0,.44,1,6.48,6.48,0,0,0,.57.54,2.42,2.42,0,0,1,1-1.6c.3-.22,1.15,0,1.63.13a7.77,7.77,0,0,0,1,.21c.64.11,1,.18,1.11.33a5.75,5.75,0,0,0,1.25,1.3h0v0a7.81,7.81,0,0,1,.36,1.44c.17.22.25.24.28.23s.11-.1.15-.19l0,0a1.94,1.94,0,0,0-.05-1.55v0a2.83,2.83,0,0,0-.55-.93c-.09-.13-.19-.25-.28-.39l-.12-.18.21,0a3.65,3.65,0,0,0,.39,0Z" />
      <path class="cls-5" d="M35.5,52.72a1.08,1.08,0,0,1,.76.44" />
      <path class="cls-2" d="M36.19,53.22a1,1,0,0,0-.7-.41v-.19a1.23,1.23,0,0,1,.84.48Z" />
      <path class="cls-5" d="M34.84,53.6s.78.15.84.47l.81,1.38" />
      <path class="cls-2" d="M36.41,55.5l-.83-1.41c0-.18-.46-.34-.76-.4l0-.18c.08,0,.82.16.91.52l.8,1.37Z" />
      <path class="cls-5" d="M33.8,54.5s.7.13.78.46l.46,1" />
      <path class="cls-2" d="M35,56l-.46-1c-.05-.24-.54-.38-.71-.41l0-.19c.08,0,.77.15.86.53l.45,1Z" />
      <path class="cls-6"
        d="M44.92,38.36,38,58.78l-10.21.51-.45.55,9.63.79H66.45V58.78l7.43-19.43S54.56,36.89,44.92,38.36Z" />
      <path class="cls-5"
        d="M39.12,58.51c4.49-.34,9-.43,13.5-.46,2.26,0,4.51,0,6.76.1s4.5.2,6.75.36l-6.76-.08c-2.25,0-4.5,0-6.75,0l-6.75,0Z" />
    </g>
  </g>
</svg>